<svg width="1138" height="144" viewBox="0 0 1138 144" fill="none" xmlns="http://www.w3.org/2000/svg">
<g clip-path="url(#clip0_143_2)">
<path d="M139.104 114.696L123.984 132H6.72V14.4H138.936L123.984 31.704H42.672V114.696H139.104ZM277.814 14.4V132H145.766V14.4H180.71V114.696H243.374V14.4H277.814Z" fill="#AD3F3F"/>
<path d="M418.802 31.704H375.29V132H340.178V31.704H296.162L281.21 14.4H433.754L418.802 31.704ZM579.691 132H538.195L474.859 59.76H534.331V31.704H469.483V132H433.867V14.4H568.939V77.064H531.643L579.691 132ZM716.477 14.4V132H681.197V81.936H619.037V132H583.085V14.4H716.477ZM619.541 31.704V64.464H680.357V31.704H619.541ZM782.001 132L719.841 14.4H754.281L793.089 92.856L831.729 14.4H866.169L804.009 132H782.001ZM986.136 114.696L1001.26 132H869.544V14.4H1001.59L986.64 31.704H904.824V64.632H993.696V81.936H904.824V114.696H986.136ZM1122.67 114.696L1107.55 132H1008.26V14.4H1043.37V114.696H1122.67Z" fill="#30AF5B"/>
</g>
<defs>
<clipPath id="clip0_143_2">
<rect width="1138" height="144" fill="white"/>
</clipPath>
</defs>
</svg>
